<?xml version="1.0" encoding="UTF-8"?>
<svg width="700pt" height="700pt" version="1.1" viewBox="0 0 700 700" xmlns="http://www.w3.org/2000/svg" xmlns:xlink="http://www.w3.org/1999/xlink">
 <defs>
  <symbol id="z" overflow="visible">
   <path d="m3.2188-0.1875c-0.16797 0.085938-0.34375 0.14844-0.53125 0.1875-0.17969 0.039062-0.35938 0.0625-0.54688 0.0625-0.58594 0-1.0469-0.16016-1.3906-0.48438-0.34375-0.32031-0.51562-0.76562-0.51562-1.3281 0-0.55078 0.17188-0.98828 0.51562-1.3125 0.34375-0.33203 0.80469-0.5 1.3906-0.5 0.1875 0 0.36719 0.027344 0.54688 0.078125 0.1875 0.042969 0.36328 0.10547 0.53125 0.1875v0.71875c-0.16797-0.11328-0.33594-0.19531-0.5-0.25-0.16797-0.050781-0.33984-0.078125-0.51562-0.078125-0.32422 0-0.57812 0.10547-0.76562 0.3125-0.17969 0.21094-0.26562 0.49219-0.26562 0.84375 0 0.36719 0.085937 0.65234 0.26562 0.85938 0.1875 0.21094 0.44141 0.3125 0.76562 0.3125 0.17578 0 0.34766-0.023437 0.51562-0.078125 0.16406-0.0625 0.33203-0.14844 0.5-0.26562z"/>
  </symbol>
  <symbol id="c" overflow="visible">
   <path d="m2.3594-1.9062c-0.085937-0.03125-0.16406-0.054688-0.23438-0.078125-0.0625-0.019531-0.13672-0.03125-0.21875-0.03125-0.21094 0-0.375 0.074219-0.5 0.21875-0.11719 0.13672-0.17188 0.33594-0.17188 0.59375v1.2031h-0.82812v-2.625h0.82812v0.4375c0.11328-0.17578 0.23828-0.30078 0.375-0.375 0.14453-0.082031 0.3125-0.125 0.5-0.125 0.03125 0 0.0625 0.007812 0.09375 0.015625h0.14062z"/>
  </symbol>
  <symbol id="a" overflow="visible">
   <path d="m3.0156-1.3125v0.23438h-1.9531c0.019531 0.19922 0.085938 0.35156 0.20312 0.45312 0.125 0.09375 0.29688 0.14062 0.51562 0.14062 0.17578 0 0.35938-0.023437 0.54688-0.078125 0.1875-0.050781 0.375-0.13281 0.5625-0.25v0.65625c-0.19922 0.074219-0.39844 0.125-0.59375 0.15625-0.19922 0.039062-0.39844 0.0625-0.59375 0.0625-0.46875 0-0.83984-0.11719-1.1094-0.35938-0.26172-0.23828-0.39062-0.57812-0.39062-1.0156 0-0.42578 0.12891-0.75781 0.39062-1 0.25781-0.25 0.61328-0.375 1.0625-0.375 0.41406 0 0.74219 0.125 0.98438 0.375 0.25 0.25 0.375 0.58594 0.375 1zm-0.85938-0.28125c0-0.16406-0.046875-0.29688-0.14062-0.39062s-0.21484-0.14062-0.35938-0.14062c-0.16797 0-0.30469 0.046875-0.40625 0.14062-0.09375 0.085937-0.15234 0.21484-0.17188 0.39062z"/>
  </symbol>
  <symbol id="l" overflow="visible">
   <path d="m1.5781-1.1875c-0.17969 0-0.3125 0.03125-0.40625 0.09375-0.085937 0.0625-0.125 0.15234-0.125 0.26562 0 0.10547 0.035156 0.1875 0.10938 0.25 0.070312 0.0625 0.17188 0.09375 0.29688 0.09375 0.15625 0 0.28516-0.054687 0.39062-0.17188 0.11328-0.11328 0.17188-0.25391 0.17188-0.42188v-0.10938zm1.2812-0.3125v1.5h-0.84375v-0.39062c-0.11719 0.15625-0.24609 0.27344-0.39062 0.34375-0.13672 0.070312-0.30469 0.10938-0.5 0.10938-0.27344 0-0.49609-0.078125-0.67188-0.23438-0.16797-0.15625-0.25-0.35938-0.25-0.60938 0-0.3125 0.10156-0.53516 0.3125-0.67188 0.21875-0.14453 0.55078-0.21875 1-0.21875h0.5v-0.078125c0-0.125-0.054687-0.21875-0.15625-0.28125-0.10547-0.0625-0.26562-0.09375-0.48438-0.09375-0.1875 0-0.35938 0.023438-0.51562 0.0625-0.14844 0.03125-0.28906 0.085938-0.42188 0.15625v-0.64062c0.17578-0.050781 0.35156-0.085937 0.53125-0.10938 0.1875-0.019531 0.36719-0.03125 0.54688-0.03125 0.47656 0 0.82031 0.09375 1.0312 0.28125 0.20703 0.1875 0.3125 0.49219 0.3125 0.90625z"/>
  </symbol>
  <symbol id="b" overflow="visible">
   <path d="m1.3125-3.375v0.75h0.875v0.59375h-0.875v1.125c0 0.11719 0.023438 0.19922 0.078125 0.25 0.050781 0.042969 0.14453 0.0625 0.28125 0.0625h0.4375v0.59375h-0.71875c-0.33594 0-0.57031-0.066406-0.70312-0.20312-0.13672-0.14453-0.20312-0.37891-0.20312-0.70312v-1.125h-0.42188v-0.59375h0.42188v-0.75z"/>
  </symbol>
  <symbol id="k" overflow="visible">
   <path d="m2.1875-2.2344v-1.4062h0.84375v3.6406h-0.84375v-0.375c-0.11719 0.15625-0.24609 0.27344-0.39062 0.34375-0.13672 0.0625-0.29297 0.09375-0.46875 0.09375-0.32422 0-0.58984-0.125-0.79688-0.375-0.21094-0.25781-0.3125-0.59375-0.3125-1s0.10156-0.73438 0.3125-0.98438c0.20703-0.25781 0.47266-0.39062 0.79688-0.39062 0.17578 0 0.33203 0.039062 0.46875 0.10938 0.14453 0.074219 0.27344 0.1875 0.39062 0.34375zm-0.54688 1.6875c0.17578 0 0.3125-0.0625 0.40625-0.1875 0.09375-0.13281 0.14062-0.32812 0.14062-0.57812s-0.046875-0.4375-0.14062-0.5625c-0.09375-0.13281-0.23047-0.20312-0.40625-0.20312-0.17969 0-0.32031 0.070313-0.42188 0.20312-0.09375 0.125-0.14062 0.3125-0.14062 0.5625s0.046875 0.44531 0.14062 0.57812c0.10156 0.125 0.24219 0.1875 0.42188 0.1875z"/>
  </symbol>
  <symbol id="j" overflow="visible">
   <path d="m1.7969-0.54688c0.17578 0 0.3125-0.0625 0.40625-0.1875 0.10156-0.13281 0.15625-0.32812 0.15625-0.57812s-0.054687-0.4375-0.15625-0.5625c-0.09375-0.13281-0.23047-0.20312-0.40625-0.20312-0.17969 0-0.32031 0.070313-0.42188 0.20312-0.09375 0.125-0.14062 0.3125-0.14062 0.5625s0.046875 0.44531 0.14062 0.57812c0.10156 0.125 0.24219 0.1875 0.42188 0.1875zm-0.5625-1.6875c0.125-0.15625 0.25391-0.26953 0.39062-0.34375 0.14453-0.070313 0.30469-0.10938 0.48438-0.10938 0.32031 0 0.58594 0.13281 0.79688 0.39062 0.20703 0.25 0.3125 0.57812 0.3125 0.98438s-0.10547 0.74219-0.3125 1c-0.21094 0.25-0.47656 0.375-0.79688 0.375-0.17969 0-0.33984-0.039062-0.48438-0.10938-0.13672-0.070313-0.26562-0.17969-0.39062-0.32812v0.375h-0.82812v-3.6406h0.82812z"/>
  </symbol>
  <symbol id="i" overflow="visible">
   <path d="m0.0625-2.625h0.82812l0.71875 1.7812 0.59375-1.7812h0.84375l-1.1094 2.875c-0.11719 0.28906-0.24609 0.49219-0.39062 0.60938-0.14844 0.11328-0.33984 0.17188-0.57812 0.17188h-0.48438v-0.54688h0.26562c0.13281 0 0.23438-0.027344 0.29688-0.078125 0.070313-0.042969 0.125-0.12109 0.15625-0.23438l0.03125-0.078125z"/>
  </symbol>
  <symbol id="h" overflow="visible">
   <path d="m2.1406 0.0625h-0.078125c-0.57422 0-1.0234-0.15625-1.3438-0.46875-0.32422-0.32031-0.48438-0.76953-0.48438-1.3438 0-0.5625 0.16016-1.0039 0.48438-1.3281 0.32031-0.32031 0.75781-0.48438 1.3125-0.48438 0.57031 0 1.0156 0.16406 1.3281 0.48438 0.32031 0.3125 0.48438 0.75781 0.48438 1.3281 0 0.39844-0.089844 0.74219-0.26562 1.0312-0.16797 0.28125-0.40625 0.49219-0.71875 0.625l0.70312 0.79688h-0.85938zm-0.10938-2.9688c-0.27344 0-0.48438 0.10547-0.64062 0.3125-0.14844 0.19922-0.21875 0.48047-0.21875 0.84375 0 0.375 0.070313 0.66797 0.21875 0.875 0.14453 0.19922 0.35938 0.29688 0.64062 0.29688s0.49219-0.097656 0.64062-0.29688c0.15625-0.20703 0.23438-0.5 0.23438-0.875 0-0.36328-0.078125-0.64453-0.23438-0.84375-0.14844-0.20703-0.35938-0.3125-0.64062-0.3125z"/>
  </symbol>
  <symbol id="y" overflow="visible">
   <path d="m2.0312-2.9062c-0.27344 0-0.48438 0.10547-0.64062 0.3125-0.14844 0.19922-0.21875 0.48047-0.21875 0.84375 0 0.375 0.070313 0.66797 0.21875 0.875 0.15625 0.19922 0.36719 0.29688 0.64062 0.29688 0.28125 0 0.49219-0.097656 0.64062-0.29688 0.15625-0.20703 0.23438-0.5 0.23438-0.875 0-0.36328-0.078125-0.64453-0.23438-0.84375-0.14844-0.20703-0.35938-0.3125-0.64062-0.3125zm0-0.65625c0.5625 0 1.0039 0.16406 1.3281 0.48438 0.32031 0.32422 0.48438 0.76562 0.48438 1.3281 0 0.57422-0.16406 1.0234-0.48438 1.3438-0.32422 0.3125-0.76562 0.46875-1.3281 0.46875-0.55469 0-0.99219-0.15625-1.3125-0.46875-0.32422-0.32031-0.48438-0.76953-0.48438-1.3438 0-0.5625 0.16016-1.0039 0.48438-1.3281 0.32031-0.32031 0.75781-0.48438 1.3125-0.48438z"/>
  </symbol>
  <symbol id="g" overflow="visible">
   <path d="m0.4375-3.5h0.90625v2.8125h1.5781v0.6875h-2.4844z"/>
  </symbol>
  <symbol id="x" overflow="visible">
   <path d="m1.8438-2.1406c0.13281 0 0.23828-0.03125 0.3125-0.09375 0.082031-0.0625 0.125-0.15625 0.125-0.28125 0-0.11328-0.042969-0.20312-0.125-0.26562-0.074219-0.070312-0.17969-0.10938-0.3125-0.10938h-0.5v0.75zm0.03125 1.5312c0.17578 0 0.3125-0.035156 0.40625-0.10938 0.09375-0.082031 0.14062-0.20312 0.14062-0.35938 0-0.14453-0.046875-0.25391-0.14062-0.32812-0.09375-0.082031-0.23047-0.125-0.40625-0.125h-0.53125v0.92188zm0.82812-1.2656c0.19531 0.0625 0.34766 0.17188 0.45312 0.32812 0.10156 0.14844 0.15625 0.32812 0.15625 0.54688 0 0.33594-0.11719 0.58594-0.34375 0.75-0.21875 0.16797-0.5625 0.25-1.0312 0.25h-1.5v-3.5h1.3594c0.47656 0 0.82812 0.074219 1.0469 0.21875 0.21875 0.14844 0.32812 0.38281 0.32812 0.70312 0 0.17969-0.042969 0.32812-0.125 0.45312-0.074219 0.11719-0.1875 0.19922-0.34375 0.25z"/>
  </symbol>
  <symbol id="e" overflow="visible">
   <path d="m0.4375-3.5h0.90625v3.5h-0.90625z"/>
  </symbol>
  <symbol id="f" overflow="visible">
   <path d="m0.4375-3.5h1.0156l1.2656 2.4062v-2.4062h0.85938v3.5h-1.0156l-1.2656-2.4062v2.4062h-0.85938z"/>
  </symbol>
  <symbol id="w" overflow="visible">
   <path d="m2.875-3.3906v0.75c-0.19922-0.09375-0.39062-0.16016-0.57812-0.20312-0.17969-0.039062-0.34375-0.0625-0.5-0.0625-0.21875 0-0.38281 0.03125-0.48438 0.09375-0.10547 0.054688-0.15625 0.14062-0.15625 0.26562 0 0.09375 0.035156 0.16797 0.10938 0.21875 0.070313 0.054687 0.19531 0.10156 0.375 0.14062l0.39062 0.078125c0.38281 0.074219 0.66016 0.19531 0.82812 0.35938 0.16406 0.15625 0.25 0.38281 0.25 0.67188 0 0.38672-0.11719 0.67188-0.34375 0.85938-0.23047 0.1875-0.57812 0.28125-1.0469 0.28125-0.23047 0-0.46094-0.023438-0.6875-0.0625-0.21875-0.039062-0.4375-0.10156-0.65625-0.1875v-0.75c0.21875 0.11719 0.42969 0.20312 0.64062 0.26562 0.20703 0.0625 0.41016 0.09375 0.60938 0.09375 0.19531 0 0.34766-0.03125 0.45312-0.09375 0.10156-0.070313 0.15625-0.17188 0.15625-0.29688 0-0.10156-0.039063-0.1875-0.10938-0.25-0.074219-0.0625-0.21484-0.11328-0.42188-0.15625l-0.34375-0.078125c-0.35547-0.070313-0.61719-0.19141-0.78125-0.35938-0.15625-0.16406-0.23438-0.38281-0.23438-0.65625 0-0.35156 0.10938-0.625 0.32812-0.8125 0.22656-0.1875 0.55469-0.28125 0.98438-0.28125 0.1875 0 0.37891 0.015625 0.57812 0.046875 0.20703 0.03125 0.42188 0.074219 0.64062 0.125z"/>
  </symbol>
  <symbol id="v" overflow="visible">
   <path d="m2.5625-0.64062h-1.4062l-0.21875 0.64062h-0.92188l1.2969-3.5h1.0781l1.2969 3.5h-0.90625zm-1.1875-0.64062h0.95312l-0.46875-1.3906z"/>
  </symbol>
  <symbol id="u" overflow="visible">
   <path d="m0.4375-3.5h1.1562l0.79688 1.875 0.79688-1.875h1.1406v3.5h-0.84375v-2.5625l-0.8125 1.8906h-0.57812l-0.79688-1.8906v2.5625h-0.85938z"/>
  </symbol>
  <symbol id="t" overflow="visible">
   <path d="m2.125-3.6406v0.54688h-0.45312c-0.125 0-0.21484 0.023438-0.26562 0.0625-0.042969 0.042969-0.0625 0.11719-0.0625 0.21875v0.1875h0.71875v0.59375h-0.71875v2.0312h-0.82812v-2.0312h-0.42188v-0.59375h0.42188v-0.1875c0-0.28125 0.078125-0.48828 0.23438-0.625 0.15625-0.13281 0.39844-0.20312 0.73438-0.20312z"/>
  </symbol>
  <symbol id="d" overflow="visible">
   <path d="m1.6562-2.0938c-0.1875 0-0.33594 0.070312-0.4375 0.20312-0.09375 0.13672-0.14062 0.32812-0.14062 0.57812s0.046875 0.44531 0.14062 0.57812c0.10156 0.13672 0.25 0.20312 0.4375 0.20312 0.17578 0 0.3125-0.066406 0.40625-0.20312 0.10156-0.13281 0.15625-0.32812 0.15625-0.57812s-0.054688-0.44141-0.15625-0.57812c-0.09375-0.13281-0.23047-0.20312-0.40625-0.20312zm0-0.59375c0.44531 0 0.79688 0.125 1.0469 0.375 0.25781 0.24219 0.39062 0.57422 0.39062 1 0 0.4375-0.13281 0.77734-0.39062 1.0156-0.25 0.24219-0.60156 0.35938-1.0469 0.35938-0.46094 0-0.82031-0.11719-1.0781-0.35938-0.25-0.23828-0.375-0.57812-0.375-1.0156 0-0.42578 0.125-0.75781 0.375-1 0.25781-0.25 0.61719-0.375 1.0781-0.375z"/>
  </symbol>
  <symbol id="s" overflow="visible">
   <path d="m2.8281-2.1875c0.11328-0.16406 0.24219-0.28906 0.39062-0.375 0.14453-0.082031 0.30078-0.125 0.46875-0.125 0.30078 0 0.53125 0.09375 0.6875 0.28125 0.16406 0.1875 0.25 0.46094 0.25 0.8125v1.5938h-0.84375v-1.375-0.046875-0.10938c0-0.17578-0.03125-0.30469-0.09375-0.39062-0.054688-0.082031-0.13672-0.125-0.25-0.125-0.16797 0-0.29297 0.070313-0.375 0.20312-0.085938 0.125-0.125 0.3125-0.125 0.5625v1.2812h-0.84375v-1.375c0-0.28125-0.027344-0.46094-0.078125-0.54688-0.054687-0.082031-0.14062-0.125-0.26562-0.125-0.16797 0-0.29688 0.070313-0.39062 0.20312-0.085937 0.125-0.125 0.30859-0.125 0.54688v1.2969h-0.84375v-2.625h0.84375v0.39062c0.10156-0.15625 0.22266-0.26953 0.35938-0.34375 0.13281-0.070313 0.28125-0.10938 0.4375-0.10938 0.1875 0 0.34766 0.046875 0.48438 0.14062 0.13281 0.085937 0.23828 0.20312 0.3125 0.35938z"/>
  </symbol>
  <symbol id="r" overflow="visible">
   <path d="m3.0469-1.5938v1.5938h-0.84375v-1.2188c0-0.22656-0.007813-0.38281-0.015625-0.46875-0.011719-0.082031-0.03125-0.14453-0.0625-0.1875-0.03125-0.0625-0.078125-0.10156-0.14062-0.125-0.054687-0.03125-0.11719-0.046875-0.1875-0.046875-0.16797 0-0.30469 0.070313-0.40625 0.20312-0.10547 0.125-0.15625 0.30859-0.15625 0.54688v1.2969h-0.82812v-3.6406h0.82812v1.4062c0.13281-0.15625 0.26953-0.26953 0.40625-0.34375 0.14453-0.070313 0.30078-0.10938 0.46875-0.10938 0.30078 0 0.53125 0.09375 0.6875 0.28125 0.16406 0.1875 0.25 0.46094 0.25 0.8125z"/>
  </symbol>
  <symbol id="q" overflow="visible">
   <path d="m0.375-1.0156v-1.6094h0.84375v0.26562 0.54688 0.42188c0 0.21094 0.003906 0.35938 0.015625 0.45312 0.007813 0.09375 0.023437 0.16406 0.046875 0.20312 0.039062 0.054687 0.085938 0.09375 0.14062 0.125 0.050781 0.03125 0.11328 0.046875 0.1875 0.046875 0.17578 0 0.3125-0.066406 0.40625-0.20312 0.10156-0.13281 0.15625-0.32031 0.15625-0.5625v-1.2969h0.84375v2.625h-0.84375v-0.375c-0.125 0.14844-0.26172 0.25781-0.40625 0.32812-0.13672 0.070312-0.29297 0.10938-0.46875 0.10938-0.30469 0-0.53125-0.085938-0.6875-0.26562-0.15625-0.1875-0.23438-0.45703-0.23438-0.8125z"/>
  </symbol>
  <symbol id="p" overflow="visible">
   <path d="m3.0469-1.5938v1.5938h-0.84375v-1.2188c0-0.22656-0.007813-0.38281-0.015625-0.46875-0.011719-0.082031-0.03125-0.14453-0.0625-0.1875-0.03125-0.0625-0.078125-0.10156-0.14062-0.125-0.054687-0.03125-0.11719-0.046875-0.1875-0.046875-0.16797 0-0.30469 0.070313-0.40625 0.20312-0.10547 0.125-0.15625 0.30859-0.15625 0.54688v1.2969h-0.82812v-2.625h0.82812v0.39062c0.13281-0.15625 0.26953-0.26953 0.40625-0.34375 0.14453-0.070313 0.30078-0.10938 0.46875-0.10938 0.30078 0 0.53125 0.09375 0.6875 0.28125 0.16406 0.1875 0.25 0.46094 0.25 0.8125z"/>
  </symbol>
  <symbol id="o" overflow="visible">
   <path d="m0.4375-3.5h1.5c0.44531 0 0.78516 0.10156 1.0156 0.29688 0.23828 0.19922 0.35938 0.48047 0.35938 0.84375 0 0.36719-0.12109 0.64844-0.35938 0.84375-0.23047 0.19922-0.57031 0.29688-1.0156 0.29688h-0.59375v1.2188h-0.90625zm0.90625 0.65625v0.98438h0.5c0.17578 0 0.3125-0.039063 0.40625-0.125 0.09375-0.09375 0.14062-0.21875 0.14062-0.375s-0.046875-0.27344-0.14062-0.35938c-0.09375-0.082031-0.23047-0.125-0.40625-0.125z"/>
  </symbol>
  <symbol id="n" overflow="visible">
   <path d="m0.40625-2.625h0.82812v2.5781c0 0.35156-0.085937 0.61719-0.25 0.79688-0.16797 0.1875-0.41406 0.28125-0.73438 0.28125h-0.40625v-0.54688h0.14062c0.15625 0 0.26562-0.039063 0.32812-0.10938 0.0625-0.074219 0.09375-0.21484 0.09375-0.42188zm0-1.0156h0.82812v0.6875h-0.82812z"/>
  </symbol>
  <symbol id="m" overflow="visible">
   <path d="m2.5156-2.5469v0.6875c-0.10547-0.070313-0.21875-0.12891-0.34375-0.17188-0.11719-0.039062-0.23047-0.0625-0.34375-0.0625-0.24219 0-0.42969 0.074219-0.5625 0.21875-0.125 0.13672-0.1875 0.32422-0.1875 0.5625 0 0.25 0.0625 0.44531 0.1875 0.57812 0.13281 0.13672 0.32031 0.20312 0.5625 0.20312 0.125 0 0.24219-0.019531 0.35938-0.0625 0.125-0.039062 0.23438-0.097656 0.32812-0.17188v0.6875c-0.125 0.054688-0.25781 0.085938-0.39062 0.10938-0.13672 0.019531-0.27344 0.03125-0.40625 0.03125-0.48047 0-0.85547-0.11719-1.125-0.35938-0.26172-0.23828-0.39062-0.57812-0.39062-1.0156 0-0.42578 0.12891-0.75781 0.39062-1 0.26953-0.25 0.64453-0.375 1.125-0.375 0.13281 0 0.26953 0.015625 0.40625 0.046875 0.13281 0.023437 0.26562 0.054687 0.39062 0.09375z"/>
  </symbol>
 </defs>
 <g>
  <path d="m200.41 480.53-10.547 11.508-189.86-189.86 189.86-188.91 10.547 11.508-169.73 169.73h669.32v16.301h-669.32z" fill-rule="evenodd"/>
  <use y="506.421875" xlink:href="#z"/>
  <use x="3.519531" y="506.421875" xlink:href="#c"/>
  <use x="5.882812" y="506.421875" xlink:href="#a"/>
  <use x="9.136719" y="506.421875" xlink:href="#l"/>
  <use x="12.371094" y="506.421875" xlink:href="#b"/>
  <use x="14.664062" y="506.421875" xlink:href="#a"/>
  <use x="17.914062" y="506.421875" xlink:href="#k"/>
  <use x="23.015625" y="506.421875" xlink:href="#j"/>
  <use x="26.445312" y="506.421875" xlink:href="#i"/>
  <use x="31.242187" y="506.421875" xlink:href="#h"/>
  <use x="35.316406" y="506.421875" xlink:href="#y"/>
  <use x="39.394531" y="506.421875" xlink:href="#g"/>
  <use x="42.449219" y="506.421875" xlink:href="#x"/>
  <use x="46.101562" y="506.421875" xlink:href="#e"/>
  <use x="47.886719" y="506.421875" xlink:href="#f"/>
  <use x="53.570312" y="506.421875" xlink:href="#w"/>
  <use x="57.023438" y="506.421875" xlink:href="#v"/>
  <use x="60.730469" y="506.421875" xlink:href="#g"/>
  <use x="63.789063" y="506.421875" xlink:href="#e"/>
  <use x="65.570312" y="506.421875" xlink:href="#e"/>
  <use x="67.355469" y="506.421875" xlink:href="#u"/>
  <use y="511.214844" xlink:href="#t"/>
  <use x="2.085938" y="511.214844" xlink:href="#c"/>
  <use x="4.449219" y="511.214844" xlink:href="#d"/>
  <use x="7.746094" y="511.214844" xlink:href="#s"/>
  <use x="14.410156" y="511.214844" xlink:href="#b"/>
  <use x="16.703125" y="511.214844" xlink:href="#r"/>
  <use x="20.113281" y="511.214844" xlink:href="#a"/>
  <use x="25.035156" y="511.214844" xlink:href="#f"/>
  <use x="29.046875" y="511.214844" xlink:href="#d"/>
  <use x="32.34375" y="511.214844" xlink:href="#q"/>
  <use x="35.753906" y="511.214844" xlink:href="#p"/>
  <use x="40.835938" y="511.214844" xlink:href="#o"/>
  <use x="44.351562" y="511.214844" xlink:href="#c"/>
  <use x="46.714844" y="511.214844" xlink:href="#d"/>
  <use x="50.011719" y="511.214844" xlink:href="#n"/>
  <use x="51.652344" y="511.214844" xlink:href="#a"/>
  <use x="54.90625" y="511.214844" xlink:href="#m"/>
  <use x="57.746094" y="511.214844" xlink:href="#b"/>
 </g>
</svg>
