<svg width="27" height="24" viewBox="0 0 27 24" fill="none" xmlns="http://www.w3.org/2000/svg">
<path d="M9.51911 0.520127C9.48767 0.529502 9.45798 0.544346 9.43161 0.563877L0.751611 6.16388C0.670361 6.21505 0.620751 6.30411 0.620361 6.40021V17.6002C0.620361 17.7549 0.745751 17.8803 0.900441 17.8803H14.0869C14.3694 21.0182 17.01 23.4803 20.2204 23.4803C21.5689 23.4803 22.8194 23.0438 23.8343 22.3076C23.9599 22.2158 23.9874 22.0397 23.8954 21.9139C23.8036 21.7883 23.6275 21.761 23.5017 21.8528C22.5788 22.5221 21.4489 22.9202 20.2204 22.9202C17.1243 22.9202 14.6204 20.4165 14.6204 17.3202C14.6204 14.2241 17.1243 11.7202 20.2204 11.7202C23.3165 11.7202 25.8204 14.2241 25.8204 17.3202C25.8204 17.8794 25.6568 18.3247 25.3829 18.6327C25.1093 18.9409 24.722 19.1227 24.2017 19.1227C23.3056 19.1227 22.4605 18.3778 22.4605 17.5039V15.0803C22.4616 15.0053 22.4325 14.933 22.38 14.8797C22.3273 14.8262 22.2554 14.7963 22.1806 14.7963C22.1056 14.7963 22.0337 14.8262 21.9812 14.8797C21.9284 14.933 21.8995 15.0053 21.9005 15.0803V15.7189C21.4978 15.1621 20.889 14.8002 20.1943 14.8002C18.9519 14.8002 17.9806 15.9523 17.9806 17.3201C17.9806 18.688 18.9519 19.8402 20.1943 19.8402C21.0576 19.8402 21.7876 19.2822 22.1542 18.4839C22.548 19.2013 23.3503 19.6826 24.2017 19.6826C24.8583 19.6826 25.4226 19.4371 25.803 19.0089C26.1835 18.5806 26.3806 17.9886 26.3806 17.3201C26.3806 13.9214 23.6192 11.1601 20.2206 11.1601C19.6383 11.1601 19.0749 11.2451 18.5407 11.3964V6.40012C18.5403 6.30403 18.4907 6.21497 18.4094 6.16379L9.72941 0.563792C9.66808 0.521995 9.5925 0.506177 9.51945 0.520042L9.51911 0.520127ZM9.58044 1.12403L17.7439 6.39153L9.58044 11.668L1.41644 6.39153L9.58044 1.12403ZM1.18044 6.90753L9.43144 12.2275C9.52246 12.2846 9.63789 12.2846 9.7289 12.2275L17.9804 6.90753V11.5888C15.6877 12.4862 14.0603 14.7116 14.0603 17.3198H1.1803L1.18044 6.90753ZM20.1939 15.36C21.0855 15.36 21.8476 16.2137 21.8476 17.32C21.8476 18.4264 21.0855 19.2801 20.1939 19.2801C19.3023 19.2801 18.5402 18.4264 18.5402 17.32C18.5402 16.2137 19.3023 15.36 20.1939 15.36Z" fill="white" stroke="white" stroke-width="0.25"/>
</svg>
