<?xml version="1.0" encoding="UTF-8"?>
<svg width="700pt" height="700pt" version="1.1" viewBox="0 0 700 700" xmlns="http://www.w3.org/2000/svg">
 <path d="m344.03 486.06c-11.848-12.023-22.992-23.812-33.453-35.371-10.562 3.2266-19.414 7.7188-25.734 13.023-4.8672 3.7422-9.4648 10.105-9.4648 16.477 0 8.625 7.5664 16.898 19.789 23.289 13.852 7.2344 33.238 11.727 54.84 11.727 21.602 0 40.988-4.4922 54.84-11.727 12.223-6.3906 19.789-14.664 19.789-23.289 0-5.7812-3.4648-11.461-9.4531-16.496-6.3281-5.293-15.188-9.7773-25.75-13.004-10.465 11.562-21.609 23.348-33.453 35.371-3.2422 3.293-8.5508 3.3398-11.848 0.097656l-0.097656-0.097656zm-45.5-48.934c-32.742-37.582-58.086-72.816-76.578-106.28-26.648-48.223-39.164-92.871-39.164-135.63 0-42.773 17.906-89.246 49.469-118.71 30.234-29.988 71.844-48.516 117.75-48.516 46.148 0 87.957 18.727 118.22 49 30.273 30.234 48.992 72.047 48.992 118.22 0 42.762-12.516 87.406-39.164 135.63-18.492 33.461-43.84 68.695-76.578 106.28 9.7031 3.6562 18.035 8.3281 24.461 13.723 9.8164 8.2812 15.496 18.316 15.496 29.336 0 15.352-11.031 28.797-28.852 38.117-16.18 8.4531-38.324 13.699-62.578 13.699s-46.398-5.2461-62.578-13.699c-17.82-9.3203-28.852-22.766-28.852-38.117 0-10.82 5.4766-20.688 14.969-28.852 6.6133-6.0312 16.66-11.066 24.988-14.207zm51.473-316.54c-20.629 0-39.297 8.3477-52.77 21.828-13.512 13.508-21.859 32.172-21.859 52.801 0 20.609 8.3555 39.27 21.859 52.773 13.102 13.977 33.793 21.859 52.77 21.859 20.629 0 39.297-8.3477 52.77-21.828 13.508-13.539 21.859-32.199 21.859-52.809 0-20.629-8.3477-39.297-21.828-52.77-13.508-13.512-32.172-21.859-52.801-21.859zm-64.652 10.02c16.594-16.582 39.445-26.82 64.652-26.82 25.199 0 48.039 10.23 64.594 26.762 17.219 17.219 26.832 40.309 26.832 64.668 0 25.246-10.238 48.113-26.781 64.652-16.57 16.535-39.426 26.781-64.648 26.781-24.977 0-47.637-10.047-64.152-26.324-17.391-16-27.277-41.715-27.277-65.109 0-25.199 10.23-48.039 26.773-64.609zm-48.699 192.17c24.617 44.539 61.949 92.531 113.36 145.43 51.406-52.895 88.738-100.89 113.36-145.43 25.215-45.633 37.059-87.613 37.059-127.56 0-41.539-16.84-79.152-44.051-106.36-27.199-27.238-64.805-44.059-106.36-44.059-41.359 0-78.801 16.66-105.97 43.633-28.691 31.121-44.441 63.688-44.441 106.79 0 39.949 11.848 81.93 37.059 127.56z"/>
</svg>
