<svg width="16" height="24" viewBox="0 0 16 24" fill="none" xmlns="http://www.w3.org/2000/svg">
<path d="M7.72702 21.2199C7.1854 20.6703 6.67596 20.1313 6.19774 19.6029C5.71491 19.7504 5.31024 19.9558 5.02133 20.1983C4.79883 20.3693 4.58865 20.6602 4.58865 20.9515C4.58865 21.3458 4.93455 21.724 5.49329 22.0161C6.12653 22.3469 7.01274 22.5522 8.00026 22.5522C8.98778 22.5522 9.874 22.3469 10.5072 22.0161C11.066 21.724 11.4119 21.3458 11.4119 20.9515C11.4119 20.6872 11.2535 20.4276 10.9797 20.1974C10.6904 19.9554 10.2854 19.7504 9.80259 19.6029C9.32419 20.1315 8.81475 20.6703 8.27331 21.2199C8.1251 21.3704 7.88242 21.3726 7.73169 21.2244L7.72722 21.2199H7.72702ZM5.64702 18.9829C4.15024 17.2649 2.99166 15.6542 2.14631 14.1244C0.928117 11.9199 0.355957 9.87886 0.355957 7.92416C0.355957 5.96882 1.17452 3.84434 2.6174 2.49742C3.99952 1.12654 5.90169 0.279541 8.00025 0.279541C10.1099 0.279541 12.0211 1.13563 13.4046 2.51954C14.7885 3.90167 15.6442 5.81312 15.6442 7.92388C15.6442 9.87872 15.0721 11.9196 13.8539 14.1241C13.0085 15.6538 11.8498 17.2645 10.3532 18.9826C10.7967 19.1498 11.1776 19.3633 11.4714 19.61C11.9201 19.9885 12.1798 20.4473 12.1798 20.951C12.1798 21.6528 11.6755 22.2675 10.8608 22.6935C10.1212 23.08 9.10887 23.3198 8.00012 23.3198C6.89136 23.3198 5.87907 23.08 5.13941 22.6935C4.32478 22.2675 3.82046 21.6528 3.82046 20.951C3.82046 20.4564 4.07082 20.0053 4.50476 19.6321C4.80708 19.3564 5.26636 19.1262 5.64707 18.9826L5.64702 18.9829ZM8.00007 4.5125C7.05703 4.5125 6.20364 4.89411 5.58773 5.51035C4.97004 6.12786 4.58846 6.98107 4.58846 7.92411C4.58846 8.86624 4.97043 9.71931 5.58773 10.3366C6.18668 10.9755 7.13255 11.3359 8.00007 11.3359C8.94311 11.3359 9.79651 10.9543 10.4124 10.338C11.0299 9.71908 11.4117 8.86606 11.4117 7.92388C11.4117 6.98084 11.0301 6.12745 10.4138 5.51154C9.79632 4.89385 8.94311 4.51227 8.00007 4.51227V4.5125ZM5.04455 4.97056C5.80314 4.21252 6.84775 3.7445 8.00007 3.7445C9.15203 3.7445 10.1961 4.21216 10.9529 4.96791C11.7401 5.75506 12.1795 6.8106 12.1795 7.92416C12.1795 9.07826 11.7115 10.1236 10.9553 10.8797C10.1978 11.6356 9.15294 12.104 7.99994 12.104C6.85813 12.104 5.82224 11.6447 5.06727 10.9006C4.27225 10.1691 3.82032 8.9936 3.82032 7.92416C3.82032 6.7722 4.28798 5.72809 5.04423 4.9706L5.04455 4.97056ZM2.81831 13.7555C3.94366 15.7915 5.65027 17.9855 8.00048 20.4037C10.3505 17.9856 12.0571 15.7916 13.1827 13.7555C14.3353 11.6694 14.8768 9.75031 14.8768 7.92416C14.8768 6.02523 14.107 4.30578 12.863 3.06199C11.6196 1.81682 9.90051 1.04786 8.00085 1.04786C6.11015 1.04786 4.39852 1.80946 3.15651 3.04251C1.84492 4.46519 1.12492 5.95396 1.12492 7.92434C1.12492 9.75058 1.66654 11.6697 2.81904 13.7557L2.81831 13.7555Z" fill="#9C0701"/>
</svg>
