<svg width="17" height="26" viewBox="0 0 17 26" fill="none" xmlns="http://www.w3.org/2000/svg">
<path d="M8.20151 23.3029C7.60911 22.7018 7.05191 22.1123 6.52885 21.5344C6.00075 21.6957 5.55815 21.9203 5.24215 22.1855C4.99879 22.3726 4.76892 22.6908 4.76892 23.0094C4.76892 23.4406 5.14724 23.8543 5.75837 24.1738C6.45097 24.5355 7.42027 24.7602 8.50037 24.7602C9.58047 24.7602 10.5498 24.5356 11.2424 24.1738C11.8535 23.8543 12.2318 23.4406 12.2318 23.0094C12.2318 22.7203 12.0586 22.4363 11.7592 22.1846C11.4428 21.9199 10.9998 21.6957 10.4717 21.5344C9.94841 22.1125 9.39121 22.7018 8.79901 23.3029C8.6369 23.4676 8.37147 23.4699 8.20661 23.3078L8.20173 23.3029H8.20151ZM5.92651 20.8562C4.2894 18.9771 3.0222 17.2154 2.0976 15.5422C0.765204 13.1311 0.139404 10.8987 0.139404 8.76071C0.139404 6.62206 1.0347 4.29841 2.61285 2.82521C4.12456 1.32581 6.20505 0.399414 8.50035 0.399414C10.8078 0.399414 12.8982 1.33576 14.4114 2.84941C15.925 4.36111 16.861 6.45176 16.861 8.76042C16.861 10.8985 16.2352 13.1307 14.9028 15.5419C13.9782 17.215 12.7108 18.9767 11.0739 20.8559C11.559 21.0387 11.9756 21.2723 12.2969 21.5421C12.7877 21.9561 13.0717 22.4579 13.0717 23.0089C13.0717 23.7765 12.5202 24.4487 11.6291 24.9147C10.8201 25.3374 9.7129 25.5997 8.50021 25.5997C7.28751 25.5997 6.18031 25.3374 5.3713 24.9147C4.4803 24.4487 3.92871 23.7764 3.92871 23.0089C3.92871 22.4679 4.20253 21.9745 4.67716 21.5663C5.00782 21.2647 5.51016 21.013 5.92656 20.8559L5.92651 20.8562ZM8.50015 5.02921C7.4687 5.02921 6.53531 5.4466 5.86166 6.12061C5.18606 6.79601 4.7687 7.72921 4.7687 8.76066C4.7687 9.79111 5.18648 10.7242 5.86166 11.3993C6.51676 12.0982 7.5513 12.4923 8.50015 12.4923C9.5316 12.4923 10.465 12.0749 11.1387 11.4009C11.8141 10.7239 12.2316 9.79091 12.2316 8.76042C12.2316 7.72896 11.8142 6.79556 11.1402 6.12191C10.4648 5.44631 9.5316 5.02896 8.50015 5.02896V5.02921ZM5.26756 5.53021C6.09726 4.70111 7.2398 4.18921 8.50015 4.18921C9.76011 4.18921 10.9021 4.70071 11.7299 5.52731C12.5908 6.38827 13.0715 7.54276 13.0715 8.76071C13.0715 10.023 12.5596 11.1664 11.7324 11.9933C10.9039 12.8201 9.76111 13.3324 8.50001 13.3324C7.25116 13.3324 6.11815 12.83 5.2924 12.0162C4.42285 11.2162 3.92856 9.93042 3.92856 8.76071C3.92856 7.50076 4.44005 6.35876 5.2672 5.53026L5.26756 5.53021ZM2.8326 15.1387C4.06345 17.3657 5.93005 19.7653 8.5006 22.4102C11.0709 19.7655 12.9375 17.3657 14.1686 15.1387C15.4294 12.8571 16.0216 10.7581 16.0216 8.76071C16.0216 6.68376 15.1796 4.80311 13.819 3.44271C12.4591 2.08081 10.5788 1.23976 8.50101 1.23976C6.43305 1.23976 4.56096 2.07276 3.20251 3.42141C1.76795 4.97746 0.980454 6.60581 0.980454 8.76091C0.980454 10.7584 1.57285 12.8574 2.8334 15.1389L2.8326 15.1387Z" fill="white"/>
</svg>
