<svg width="23" height="28" viewBox="0 0 23 28" fill="none" xmlns="http://www.w3.org/2000/svg">
<path d="M1.0935 4.83915H21.906C22.0679 4.83915 22.1951 4.71197 22.1951 4.55009V0.503238C22.1951 0.341363 22.0679 0.214172 21.906 0.214172H1.0935C0.931625 0.214172 0.804434 0.341357 0.804434 0.503238V4.55009C0.804434 4.71196 0.93162 4.83915 1.0935 4.83915ZM21.6169 4.261H1.38263V0.79225H21.6169V4.261Z" fill="#9C0701" stroke="#9C0701" stroke-width="0.25"/>
<path d="M9.18748 19.8701H13.8125C13.9339 19.8701 14.0379 19.795 14.0842 19.6851L15.437 16.0719C16.9054 15.355 18.1427 14.2508 19.0329 12.8749C19.9695 11.4295 20.4609 9.74721 20.4609 8.01862V4.54987C20.4609 4.38799 20.3338 4.2608 20.1719 4.2608H2.82838C2.66651 4.2608 2.53932 4.38799 2.53932 4.54987V8.01862C2.53932 9.74721 3.03073 11.4238 3.96731 12.8749C4.85763 14.2508 6.09481 15.355 7.56323 16.0719L8.91606 19.6851C8.95653 19.795 9.06637 19.8701 9.18778 19.8701H9.18748ZM13.6101 19.292H9.38406L8.06014 15.7597C8.03124 15.6903 7.97921 15.6325 7.91561 15.5978C5.00186 14.216 3.11719 11.2387 3.11719 8.01859V4.83892H19.8829V8.01859C19.8829 11.2445 17.9983 14.2161 15.0845 15.5978C15.0151 15.6325 14.9631 15.6845 14.94 15.7597L13.6101 19.292Z" fill="#9C0701" stroke="#9C0701" stroke-width="0.25"/>
<path d="M7.45339 23.3392H15.5469C15.7087 23.3392 15.8359 23.212 15.8359 23.0501V19.5814C15.8359 19.4195 15.7088 19.2923 15.5469 19.2923H7.45339C7.29151 19.2923 7.16432 19.4195 7.16432 19.5814V23.0501C7.16432 23.212 7.29151 23.3392 7.45339 23.3392ZM15.2583 22.761H7.74251V19.8704H15.2583V22.761Z" fill="#9C0701" stroke="#9C0701" stroke-width="0.25"/>
<path d="M2.82839 27.3859H20.1719C20.3337 27.3859 20.4609 27.2587 20.4609 27.0968C20.4609 24.7034 18.5184 22.7609 16.125 22.7609H6.87501C4.48159 22.7609 2.53909 24.7034 2.53909 27.0968C2.53909 27.2587 2.66627 27.3859 2.82815 27.3859H2.82839ZM19.8716 26.8078H3.12914C3.27946 24.871 4.90398 23.339 6.87539 23.339H16.1254C18.1026 23.339 19.7213 24.871 19.8716 26.8078Z" fill="#9C0701" stroke="#9C0701" stroke-width="0.25"/>
<path d="M1.0935 27.3859H21.906C22.0679 27.3859 22.1951 27.2587 22.1951 27.0968C22.1951 26.9349 22.0679 26.8077 21.906 26.8077H1.0935C0.931625 26.8077 0.804434 26.9349 0.804434 27.0968C0.804434 27.2587 0.93162 27.3859 1.0935 27.3859Z" fill="#9C0701" stroke="#9C0701" stroke-width="0.25"/>
<path d="M11.5 14.6674C11.6619 14.6674 11.7891 14.5403 11.7891 14.3784V6.86261C11.7891 6.70074 11.6619 6.57355 11.5 6.57355C11.3381 6.57355 11.2109 6.70073 11.2109 6.86261V14.3784C11.2109 14.5402 11.3381 14.6674 11.5 14.6674Z" fill="#9C0701" stroke="#9C0701" stroke-width="0.25"/>
<path d="M9.1875 9.46418H13.8125C13.9744 9.46418 14.1016 9.33699 14.1016 9.17511C14.1016 9.01323 13.9744 8.88605 13.8125 8.88605H9.1875C9.02562 8.88605 8.89843 9.01323 8.89843 9.17511C8.89843 9.33699 9.02562 9.46418 9.1875 9.46418Z" fill="#9C0701" stroke="#9C0701" stroke-width="0.25"/>
</svg>
