<svg width="13" height="22" viewBox="0 0 13 22" fill="none" xmlns="http://www.w3.org/2000/svg">
<path d="M10.9349 0.919922H2.06443C1.19413 0.919922 0.486328 1.62772 0.486328 2.49802V19.502C0.486328 20.3719 1.19413 21.0801 2.06443 21.0801H10.9349C11.8048 21.0801 12.513 20.3723 12.513 19.502V2.49802C12.513 1.62792 11.8048 0.919922 10.9349 0.919922V0.919922ZM11.9531 19.5019C11.9531 20.0633 11.4964 20.5201 10.9349 20.5201L2.06443 20.5199C1.50308 20.5199 1.04628 20.0632 1.04628 19.5017V2.49823C1.04628 1.93688 1.50292 1.48008 2.06443 1.48008H10.9349C11.4963 1.48008 11.9531 1.93672 11.9531 2.49823V19.5019Z" fill="white" stroke="white" stroke-width="0.25"/>
<path d="M7.47387 2.48828H5.52642C5.37193 2.48828 5.24634 2.61367 5.24634 2.76836C5.24634 2.92285 5.37173 3.04844 5.52642 3.04844H7.47387C7.62875 3.04844 7.75395 2.92305 7.75395 2.76836C7.75395 2.61387 7.62836 2.48828 7.47387 2.48828Z" fill="white" stroke="white" stroke-width="0.25"/>
<path d="M7.21251 18.6705C7.21251 19.0641 6.89337 19.3832 6.49981 19.3832C6.10625 19.3832 5.78711 19.0641 5.78711 18.6705C5.78711 18.2769 6.10625 17.958 6.49981 17.958C6.89337 17.958 7.21251 18.277 7.21251 18.6705Z" fill="white" stroke="white" stroke-width="0.25"/>
</svg>
