<svg width="34" height="33" viewBox="0 0 34 33" fill="none" xmlns="http://www.w3.org/2000/svg">
<path d="M16.9999 0.236572C12.7132 0.236572 8.60189 1.93956 5.57061 4.97075C2.53932 8.00195 0.836426 12.1133 0.836426 16.4001C0.836426 20.6869 2.53941 24.7981 5.57061 27.8294C8.6018 30.8607 12.7131 32.5636 16.9999 32.5636C21.2867 32.5636 25.3979 30.8606 28.4292 27.8294C31.4605 24.7982 33.1634 20.6869 33.1634 16.4001C33.1491 12.1178 31.4416 8.01486 28.4134 4.98678C25.3852 1.95861 21.2823 0.251092 17.0001 0.236761L16.9999 0.236572ZM16.9999 31.4857C12.999 31.4857 9.16167 29.8965 6.33243 27.0672C3.50311 24.2382 1.91392 20.4009 1.91392 16.3997C1.91392 12.3985 3.50311 8.56144 6.33243 5.7322C9.16138 2.90288 12.9987 1.31369 16.9999 1.31369C21.0011 1.31369 24.8382 2.90288 27.6674 5.7322C30.4967 8.56115 32.0859 12.3985 32.0859 16.3997C32.0716 20.3962 30.4779 24.225 27.6519 27.0512C24.8255 29.8772 20.9967 31.4708 17.0005 31.4851L16.9999 31.4857Z" fill="#9C0701"/>
<path d="M25.0811 15.8617H17.5382V8.31885C17.5382 8.02127 17.297 7.78003 16.9994 7.78003C16.7018 7.78003 16.4606 8.02127 16.4606 8.31885V15.8617H8.91773C8.62014 15.8617 8.37891 16.103 8.37891 16.4005C8.37891 16.6981 8.62014 16.9394 8.91773 16.9394H16.4606V24.4822C16.4606 24.7798 16.7018 25.021 16.9994 25.021C17.297 25.021 17.5382 24.7798 17.5382 24.4822V16.9394H25.0811C25.3787 16.9394 25.6199 16.6981 25.6199 16.4005C25.6199 16.103 25.3787 15.8617 25.0811 15.8617Z" fill="#9C0701"/>
</svg>
