<svg width="20" height="19" viewBox="0 0 20 19" fill="none" xmlns="http://www.w3.org/2000/svg">
<path d="M9.9999 0.351318C5.01088 0.351318 0.951904 4.41029 0.951904 9.39932C0.951904 14.3883 5.01088 18.4473 9.9999 18.4473C14.9889 18.4473 19.0479 14.3883 19.0479 9.39932C19.0479 4.41029 14.9889 0.351318 9.9999 0.351318ZM9.9999 17.8233C5.35482 17.8233 1.5759 14.0444 1.5759 9.39932C1.5759 4.75423 5.35482 0.975319 9.9999 0.975319C14.645 0.975319 18.4239 4.75423 18.4239 9.39932C18.4239 14.0444 14.645 17.8233 9.9999 17.8233ZM10.3118 9.26635V2.91678C10.3118 2.74441 10.1721 2.60484 9.9999 2.60484C9.82768 2.60484 9.68796 2.74441 9.68796 2.91678V9.39932C9.68796 9.4842 9.72249 9.56545 9.78387 9.62435L13.3547 13.0566C13.415 13.1146 13.4929 13.1435 13.5709 13.1435C13.6528 13.1435 13.7345 13.1114 13.7957 13.0479C13.9151 12.9237 13.9114 12.7261 13.787 12.6067L10.3118 9.26635Z" fill="#9C0701"/>
</svg>
